<svg xmlns="http://www.w3.org/2000/svg" width="18.842" height="20" viewBox="0 0 18.842 20">
    <defs>
        <clipPath id="ycpvand5la">
            <path data-name="사각형 10044" style="fill:#202225" d="M0 0h18.842v20H0z"/>
        </clipPath>
    </defs>
    <g data-name="그룹 28153" style="clip-path:url(#ycpvand5la)">
        <path data-name="패스 90" d="m18.743 15.947-1.534-2.84a6.317 6.317 0 0 1-.758-3V6.953A7.022 7.022 0 0 0 11.763.4l-.156-.052a7 7 0 0 0-4.333 0L7.119.4a7.022 7.022 0 0 0-4.688 6.553v3.154a6.318 6.318 0 0 1-.758 3L.092 16.034a.759.759 0 0 0 .668 1.12h17.263a.818.818 0 0 0 .72-1.207m-17.7.281 1.567-2.9a6.171 6.171 0 0 0 .74-2.93V7.015h.009a6.1 6.1 0 0 1 3.763-5.627q.118-.049.237-.093a6.089 6.089 0 0 1 4.163 0q.119.043.237.093a6.094 6.094 0 0 1 3.767 5.564v3.442a6.167 6.167 0 0 0 .748 2.943l1.57 2.891z" transform="translate(0 -.004)" style="fill:#202225"/>
        <path data-name="패스 91" d="M342.382 1026.131a.452.452 0 0 0-.265.084 5 5 0 0 1-5.549 0 .452.452 0 0 0-.265-.084.459.459 0 0 0-.273.828 5.881 5.881 0 0 0 6.625 0 .459.459 0 0 0-.273-.828" transform="translate(-329.901 -1007.981)" style="fill:#202225"/>
    </g>
</svg>
