<svg xmlns="http://www.w3.org/2000/svg" width="26.235" height="25.023" viewBox="0 0 26.235 25.023">
    <defs>
        <clipPath id="hq6lr6skla">
            <path data-name="사각형 10013" style="fill:#d6e8f0" d="M0 0h26.235v25.023H0z"/>
        </clipPath>
    </defs>
    <g data-name="그룹 28107" style="clip-path:url(#hq6lr6skla)">
        <path data-name="패스 66" d="M20.413 25.023a1.3 1.3 0 0 1-.61-.152l-6.686-3.516-6.686 3.516a1.312 1.312 0 0 1-1.9-1.381L5.8 16.043.395 10.77a1.312 1.312 0 0 1 .727-2.237L8.6 7.447 11.942.673a1.365 1.365 0 0 1 2.352 0l3.343 6.774 7.476 1.086a1.312 1.312 0 0 1 .727 2.237l-5.41 5.274 1.278 7.446A1.313 1.313 0 0 1 20.635 25a1.375 1.375 0 0 1-.22.018z" style="fill:#d6e8f0"/>
    </g>
</svg>
