<svg xmlns="http://www.w3.org/2000/svg" width="27" height="26" viewBox="0 0 27 26">
    <defs>
        <clipPath id="0yg2gnka6a">
            <path data-name="사각형 10048" transform="translate(.011 -.45)" style="fill:#fff" d="M0 0h2v10H0z"/>
        </clipPath>
    </defs>
    <g data-name="사각형 10050" style="stroke:#fde0d7;stroke-width:2px;fill:#fff">
        <rect width="21" height="21" rx="3" style="stroke:none"/>
        <rect x="1" y="1" width="19" height="19" rx="2" style="fill:none"/>
    </g>
    <g data-name="그룹 28163">
        <g data-name="사각형 10051" style="fill:#fde0d7;stroke:#fff">
            <path style="stroke:none" d="M0 0h16v16H0z" transform="translate(11 10)"/>
            <path style="fill:none" d="M.5.5h15v15H.5z" transform="translate(11 10)"/>
        </g>
    </g>
    <g data-name="그룹 28168">
        <g data-name="그룹 28157" style="clip-path:url(#0yg2gnka6a)" transform="rotate(90 3.28 20.27)">
            <path data-name="패스 92" d="M1.011 2.022A1.011 1.011 0 1 0 0 1.011a1.011 1.011 0 0 0 1.011 1.011m0 5.056a1.011 1.011 0 1 0 1.011 1.011 1.011 1.011 0 0 0-1.011-1.011m0-3.539A1.011 1.011 0 1 0 2.022 4.55a1.011 1.011 0 0 0-1.011-1.011" style="fill:#fff"/>
        </g>
    </g>
</svg>
