<svg xmlns="http://www.w3.org/2000/svg" width="29" height="26.647" viewBox="0 0 29 26.647">
    <defs>
        <clipPath id="t06ds3e80a">
            <path data-name="사각형 10010" style="fill:#202225" d="M0 0h29v26.647H0z"/>
        </clipPath>
    </defs>
    <g data-name="그룹 28104" style="clip-path:url(#t06ds3e80a)">
        <path data-name="패스 63" d="M27.658 13.86V8.576a4.206 4.206 0 0 0-4.2-4.2h-1.69l-1.2-2.87-4.146 1.735L13.981 0 8.172 4.375H2.614A2.615 2.615 0 0 0 .009 6.818v.019c0 .051-.008.1-.008.152V7h.007v.006H0v17.047a2.6 2.6 0 0 0 2.594 2.594h20.019a2.6 2.6 0 0 0 2.594-2.594v-3.509h1.05v2.095h1.4v-2.1A1.4 1.4 0 0 0 29 19.143v-3.886a1.4 1.4 0 0 0-1.342-1.4m-.058 1.4v3.886H17.447v-3.886zm-4.143-9.482a2.8 2.8 0 0 1 2.8 2.8v5.281h-1.05V10.8a2.6 2.6 0 0 0-1.779-2.461l-1.074-2.564zM21.854 8.2H8.217l11.6-4.863zM15.09 3.8 6.453 7.423 13.7 1.961zM2.614 5.775h3.7L3.093 8.2h-.5a1.2 1.2 0 0 1-1.185-1.062v-.282a1.215 1.215 0 0 1 1.206-1.081m21.193 18.278a1.2 1.2 0 0 1-1.194 1.194H2.594A1.2 1.2 0 0 1 1.4 24.053V9.309a2.578 2.578 0 0 0 1.194.291h20.02a1.2 1.2 0 0 1 1.193 1.2v3.06h-6.36a1.4 1.4 0 0 0-1.4 1.4v3.886a1.4 1.4 0 0 0 1.4 1.4h6.36v3.509z" style="fill:#202225"/>
        <path data-name="패스 64" d="M232.024 200.738a1.021 1.021 0 1 1-1.024 1.021 1.021 1.021 0 0 1 1.021-1.021" transform="translate(-212.331 -184.512)" style="fill:#202225"/>
    </g>
</svg>
