<svg xmlns="http://www.w3.org/2000/svg" width="43.883" height="36.029" viewBox="0 0 43.883 36.029">
    <defs>
        <clipPath id="pjvwq4cnoa">
            <path data-name="사각형 9978" style="fill:#202225" d="M0 0h43.883v36.029H0z"/>
        </clipPath>
    </defs>
    <g data-name="그룹 28076" style="clip-path:url(#pjvwq4cnoa)">
        <path data-name="패스 47" d="M36.066 2.66v8.388l.934-.936H8.716a2.718 2.718 0 0 0-2.425 1.353 3.6 3.6 0 0 0-.342 1.844v12.606l.936-.936H2.673a1.287 1.287 0 0 1-.2-.009l.126.014-.122-.028a1.13 1.13 0 0 1-.117-.037c-.094-.037-.075-.028.051.028l-.159-.084c-.192-.112 0 0-.009.009a1.614 1.614 0 0 1-.253-.253c.023-.023.112.173.042.042l-.089-.159c-.1-.178.051.2 0 0a2.244 2.244 0 0 1-.061-.239l.014.126a1.148 1.148 0 0 1-.009-.126v-.122c-.009-1.62 0-3.244 0-4.863V2.534c.009-.1.009-.084-.009.061l.061-.239c.051-.2-.1.173 0 0a1.741 1.741 0 0 0 .097-.156c.1-.178-.145.145 0 0 .042-.042.08-.089.126-.131.159-.15 0 0 0 0a1.822 1.822 0 0 1 .154-.1c.2-.108 0 0 0-.009a.891.891 0 0 1 .178-.056l.061-.014c.1-.019.08-.019-.066 0a1.225 1.225 0 0 1 .192-.009h29.406c1.067 0 2.134-.014 3.2 0a.849.849 0 0 1 .2.009c0 .023-.225-.061-.033 0l.15.042c.2.051-.173-.1 0 0a1.741 1.741 0 0 0 .159.089c.178.1-.145-.145 0 0 .042.042.089.08.131.126.15.159 0 0 0 0A1.822 1.822 0 0 1 36 2.3c.108.2 0 0 .009 0a1.333 1.333 0 0 1 .056.178c0 .019.009.042.014.061.019.1.019.08 0-.066a1.318 1.318 0 0 0-.009.2.936.936 0 1 0 1.872 0A2.7 2.7 0 0 0 35.279 0H2.663A2.707 2.707 0 0 0 .126 1.855a3.023 3.023 0 0 0-.126 1v21.323A2.7 2.7 0 0 0 1.793 26.7a4.963 4.963 0 0 0 1.7.145h3.38a.951.951 0 0 0 .936-.936V12.733a1.148 1.148 0 0 1 .009-.126c0-.126-.051.178 0 .061a1.385 1.385 0 0 0 .066-.239c.023-.117-.089.154-.023.056.028-.042.047-.089.07-.131 0 .009.066-.1.066-.1.019.009-.136.15-.037.047l.169-.169c.126-.122-.042.042-.047.037l.1-.066c.033-.019.07-.037.108-.061.169-.1-.187.051 0 0a1.992 1.992 0 0 1 .239-.061c0 .014-.248.014-.061.009H37a.951.951 0 0 0 .936-.936V2.66a.934.934 0 1 0-1.868 0z" style="fill:#202225"/>
        <path data-name="패스 48" d="M1.019 125.232h34.6c.468 0 .941.009 1.409 0h.061a.936.936 0 1 0 0-1.872h-34.6c-.468 0-.941-.009-1.409 0h-.061a.936.936 0 1 0 0 1.872m41.07 5.121v20.591a1.32 1.32 0 0 1-.009.2c-.019 0 .056-.243 0-.066-.019.056-.033.117-.051.178-.051.187.084-.117.014-.028a1.4 1.4 0 0 0-.1.183c-.094.169.112-.1.019-.019-.037.033-.066.075-.1.112a1.062 1.062 0 0 1-.136.122c-.023-.023.173-.112.042-.042l-.159.089c-.173.1.2-.051 0 0a1.132 1.132 0 0 0-.117.037l-.122.028c.145-.019.164-.019.061-.009-.829.009-1.657 0-2.486 0H11.19c-.838 0-1.676.014-2.509 0H8.55c-.1-.009-.084-.009.061.009 0 0-.169-.042-.183-.042l-.117-.037s.2.1 0-.009l-.1-.061c-.084-.056-.066-.042.042.042a.718.718 0 0 1-.089-.08 1.119 1.119 0 0 1-.1-.108c-.136-.136.033.014.014.023a1.807 1.807 0 0 1-.15-.262c.009 0 .07.211.009 0 0-.014-.047-.183-.042-.183s.014.248.009.061v-16.943c0-1.259-.019-2.523 0-3.782v-.132c.009-.1.009-.084-.009.061 0 0 .061-.3.084-.295 0 0-.1.2.009 0a1.73 1.73 0 0 1 .1-.154s-.145.164 0 0a1.121 1.121 0 0 1 .108-.1c.136-.136-.014.033-.023.014a1.823 1.823 0 0 1 .154-.1c.014-.009.108-.056.108-.056s-.211.07 0 .009a1.4 1.4 0 0 0 .15-.037c.07-.014.042-.009-.094.009a1.147 1.147 0 0 1 .126-.009h32.821c-.019 0-.042 0-.061-.009l.122.028a1.332 1.332 0 0 1 .178.056c0 .028-.183-.094-.056-.019a1.736 1.736 0 0 0 .159.089c.178.1-.14-.145 0 0a1.787 1.787 0 0 1 .211.215c-.019.019-.112-.192-.023-.019l.075.131c.1.173-.051-.2 0 0a1.127 1.127 0 0 0 .037.117c0 .019.009.042.014.061.019.1.019.08 0-.066v.192a.936.936 0 0 0 1.872 0 2.678 2.678 0 0 0-2.125-2.6 3.542 3.542 0 0 0-.665-.056H8.8a3.292 3.292 0 0 0-.744.075 2.688 2.688 0 0 0-2.031 2.584V151.067a2.689 2.689 0 0 0 2.4 2.509 7.4 7.4 0 0 0 .852.019h31.482a4.734 4.734 0 0 0 1.231-.089 2.7 2.7 0 0 0 1.971-2.57v-20.6a.936.936 0 0 0-1.872 0" transform="translate(-.078 -117.581)" style="fill:#202225"/>
        <path data-name="패스 49" d="M238.019 340.306h3.244a.936.936 0 1 0 0-1.872h-3.244a.936.936 0 1 0 0 1.872m5.444-7.784H239.1c-.1 0-.061.033-.009.009s.08.019 0 0a1.1 1.1 0 0 1-.122-.037c0-.037.183.1.056.014-.145-.1.037.042.042.042a.777.777 0 0 1-.089-.084c-.112-.1.07.033.033.047a.445.445 0 0 1-.047-.08c-.047-.1.051.192.009.023a.778.778 0 0 1-.028-.122c.028-.014.009.211.014.056v-4.37c0-.014.009-.061 0-.07.042.052-.042.187 0 .061a.506.506 0 0 1 .037-.122s-.089.22-.014.056c.066-.136-.019.075-.042.042a.774.774 0 0 1 .084-.089c.1-.112-.042.042-.047.033s.1-.07.108-.061c.023.037-.2.056-.051.023a.675.675 0 0 0 .122-.028c-.023.019-.225.009-.056.014h4.343c.023 0 .08.009.094 0-.066.052-.183-.047-.061 0a.71.71 0 0 0 .122.037c-.028 0-.192-.1-.056-.014s-.037-.042-.042-.042.075.075.089.084c.136.122-.047-.037-.033-.047 0 0 .07.1.061.108s-.066-.234-.023-.052a.776.776 0 0 0 .028.122c-.009-.014 0-.187-.019-.089v4.404c0 .023-.009.061 0 .07-.019-.019.061-.225 0-.061a.3.3 0 0 1-.019.061c-.028.08-.028.08 0 0 .033-.014.042-.08-.009 0-.094.154.037-.042.042-.042s-.075.075-.084.089c-.1.112.033-.07.047-.033 0 .009-.112.056-.108.061-.009-.014.229-.066.051-.023-.028.009-.061.014-.094.023-.122.033.248-.023.033-.014a.936.936 0 0 0 0 1.872 2.042 2.042 0 0 0 2.008-2.008v-4.357a2.025 2.025 0 0 0-1.629-1.98 6.021 6.021 0 0 0-.917-.042h-3.79a2.051 2.051 0 0 0-1.938 1.357 3.09 3.09 0 0 0-.112 1.058v3.871a2.08 2.08 0 0 0 .969 1.816 2.473 2.473 0 0 0 1.339.29h4.072a.936.936 0 1 0 0-1.872zm1.357 7.784h3.244a.936.936 0 0 0 0-1.872h-3.244a.936.936 0 1 0 0 1.872m6.8.047h3.244a.945.945 0 0 0 .936-.936.954.954 0 0 0-.936-.936h-3.244a.936.936 0 1 0 0 1.872m6.8 0h3.244a.945.945 0 0 0 .936-.936.954.954 0 0 0-.936-.936h-3.244a.936.936 0 0 0 0 1.872" transform="translate(-225.985 -310.74)" style="fill:#202225"/>
    </g>
</svg>
