<svg xmlns="http://www.w3.org/2000/svg" width="24.424" height="24.424" viewBox="0 0 24.424 24.424">
    <defs>
        <clipPath id="u2xmd6ueba">
            <path data-name="사각형 10054" style="fill:#c8cacc" d="M0 0h24.424v24.424H0z"/>
        </clipPath>
    </defs>
    <g data-name="그룹 28176" style="clip-path:url(#u2xmd6ueba)">
        <path data-name="패스 95" d="M20.76 23.113a.714.714 0 0 1-.713-.713v-1.7a.715.715 0 0 1 .171-.464l2.937-3.438a2.815 2.815 0 0 0-2.141-4.645h-.052a3.28 3.28 0 0 0-2.554 1.072.713.713 0 0 1-1.123-.881 4.657 4.657 0 0 1 3.752-1.616 4.243 4.243 0 0 1 3.2 7l-2.763 3.232v1.44a.714.714 0 0 1-.713.713zm-.019 2.781a.939.939 0 0 1-.67-.276 1.185 1.185 0 0 1-.119-.147.868.868 0 0 1-.09-.162 1.737 1.737 0 0 1-.052-.176.943.943 0 0 1 0-.376 1.151 1.151 0 0 1 .057-.176 1.078 1.078 0 0 1 .086-.166.853.853 0 0 1 .119-.143.99.99 0 0 1 1.346 0 1.175 1.175 0 0 1 .119.143 1.078 1.078 0 0 1 .086.166 1.266 1.266 0 0 1 .057.176.943.943 0 0 1 0 .376 1.151 1.151 0 0 1-.057.176.942.942 0 0 1-.514.514.789.789 0 0 1-.366.071" transform="translate(-8.986 -5.622)" style="fill:#c8cacc"/>
        <path data-name="패스 96" d="M12.212 24.424a12.212 12.212 0 1 1 12.212-12.212 12.212 12.212 0 0 1-12.212 12.212m0-23A10.785 10.785 0 1 0 23 12.212 10.785 10.785 0 0 0 12.212 1.427" style="fill:#c8cacc"/>
    </g>
</svg>
