<svg xmlns="http://www.w3.org/2000/svg" width="20" height="20" viewBox="0 0 20 20">
    <defs>
        <clipPath id="vgmym1paoa">
            <path data-name="사각형 10058" style="fill:#202225" d="M0 0h20v20H0z"/>
        </clipPath>
    </defs>
    <g data-name="icon_insesrt" style="clip-path:url(#vgmym1paoa)">
        <path data-name="패스 103" d="M14.359 0H5.64C2.256 0 0 2.42 0 5.893v8.214C0 17.583 2.25 20 5.641 20h8.718C17.75 20 20 17.583 20 14.107V5.893C20 2.417 17.75 0 14.359 0M5.64 1.395h8.718c2.6 0 4.246 1.77 4.246 4.5v8.214c0 2.727-1.649 4.5-4.246 4.5H5.64c-2.6 0-4.246-1.77-4.246-4.5V5.893c0-2.724 1.654-4.5 4.246-4.5M10 5.885a.7.7 0 0 1 .691.6l.007.1v2.71h2.713a.7.7 0 0 1 .095 1.388l-.095.007H10.7v2.71a.7.7 0 0 1-1.39.094L9.3 13.4v-2.71H6.59a.7.7 0 0 1-.1-1.39l.1-.005H9.3V6.584a.7.7 0 0 1 .7-.7z" style="fill-rule:evenodd;fill:#202225"/>
    </g>
</svg>
