<svg xmlns="http://www.w3.org/2000/svg" width="43" height="36" viewBox="0 0 43 36">
    <defs>
        <clipPath id="snlxhkgoda">
            <path data-name="사각형 10003" style="fill:#202225" d="M0 0h43v36H0z"/>
        </clipPath>
    </defs>
    <g data-name="그룹 28079" style="clip-path:url(#snlxhkgoda)">
        <path data-name="패스 51" d="M37.1 32.4a.9.9 0 0 1-.218-.025c-.072-.02-7.135-1.775-10.582-1.775a11.675 11.675 0 0 0-5.8 1.651.9.9 0 0 1-.994 0A11.675 11.675 0 0 0 13.7 30.6c-3.447 0-10.51 1.757-10.582 1.775a.916.916 0 0 1-.772-.164A.9.9 0 0 1 2 31.5V2.7a.9.9 0 0 1 .682-.873C2.979 1.753 10.032 0 13.7 0A13.442 13.442 0 0 1 20 1.654 13.442 13.442 0 0 1 26.3 0c3.668 0 10.719 1.753 11.018 1.827A.9.9 0 0 1 38 2.7v28.8a.9.9 0 0 1-.9.9m-10.8-3.6a55.442 55.442 0 0 1 9.9 1.561V3.409A57.1 57.1 0 0 0 26.3 1.8a11.725 11.725 0 0 0-5.4 1.415V30a13.32 13.32 0 0 1 5.4-1.2M3.8 3.409v26.95a55.441 55.441 0 0 1 9.9-1.559 13.328 13.328 0 0 1 5.4 1.2V3.215A11.732 11.732 0 0 0 13.7 1.8a57.1 57.1 0 0 0-9.9 1.609" transform="translate(1.6 -.001)" style="fill:#202225"/>
        <path data-name="패스 52" d="M21.6 34.206a3.72 3.72 0 0 1-1.222-.184 3.5 3.5 0 0 1-.884-.6 2.693 2.693 0 0 0-2.133-.715c-6.556.7-16.29 1.489-16.387 1.5a.918.918 0 0 1-.684-.236A.9.9 0 0 1 0 33.3V4.506c0-1.123 1.307-1.8 4.367-2.254a.9.9 0 1 1 .266 1.78A9.009 9.009 0 0 0 1.8 4.76v27.567c2.633-.218 10.055-.848 15.37-1.411a4.5 4.5 0 0 1 3.524 1.161 3.333 3.333 0 0 0 .373.286 10.285 10.285 0 0 0 1.109-.02 7.2 7.2 0 0 0 .347-.281 4.477 4.477 0 0 1 3.508-1.147c5.314.562 12.735 1.192 15.368 1.411V4.76a9.009 9.009 0 0 0-2.833-.727.9.9 0 0 1 .266-1.78c3.06.457 4.367 1.13 4.367 2.254V33.3a.9.9 0 0 1-.29.661.892.892 0 0 1-.684.236c-.1-.007-9.832-.8-16.387-1.5a2.7 2.7 0 0 0-2.115.7 3.549 3.549 0 0 1-.9.617 3.693 3.693 0 0 1-1.226.185" transform="translate(0 1.795)" style="fill:#202225"/>
    </g>
</svg>
