<svg xmlns="http://www.w3.org/2000/svg" width="13.042" height="13.042" viewBox="0 0 13.042 13.042">
    <defs>
        <clipPath id="w7j77p2zya">
            <path data-name="사각형 98" style="fill:#202225" d="M0 0h13.042v13.042H0z"/>
        </clipPath>
    </defs>
    <g data-name="그룹 49" style="clip-path:url(#w7j77p2zya)">
        <path data-name="패스 45" d="M.024 9.786 0 12.472a.521.521 0 0 0 .166.4.674.674 0 0 0 .4.166l2.686-.024a.674.674 0 0 0 .4-.166l9.23-9.218a.589.589 0 0 0 0-.808L10.22.16a.589.589 0 0 0-.808 0L7.558 2.014.19 9.382a.557.557 0 0 0-.166.4M11.67 3.226l-1.046 1.046L8.77 2.418l1.046-1.045 1.854 1.853m-10.505 6.8 6.8-6.8L9.816 5.08l-6.8 6.8H1.165z" style="fill:#202225"/>
    </g>
</svg>
