<svg xmlns="http://www.w3.org/2000/svg" width="36" height="36" viewBox="0 0 36 36">
    <path data-name="패스 50" d="M13.61 27.513h8.779v6.955H13.61zM1.532 9.275H7.7v25.193H1.532zm26.77 0h6.166v25.193H28.3zM9.23 1.532h17.54v32.936h-2.849v-8.487H12.079v8.487H9.23zM7.7 0v7.744H0V36h36V7.744h-7.7V0z" style="fill:#202225"/>
    <path data-name="사각형 9979" transform="translate(11.344 3.891)" style="fill:#202225" d="M0 0h1.532v2.949H0z"/>
    <path data-name="사각형 9980" transform="translate(11.344 9.429)" style="fill:#202225" d="M0 0h1.532v2.949H0z"/>
    <path data-name="사각형 9981" transform="translate(11.344 14.967)" style="fill:#202225" d="M0 0h1.532v2.949H0z"/>
    <path data-name="사각형 9982" transform="translate(11.344 20.512)" style="fill:#202225" d="M0 0h1.532v2.949H0z"/>
    <path data-name="사각형 9983" transform="translate(15.273 3.891)" style="fill:#202225" d="M0 0h1.532v2.949H0z"/>
    <path data-name="사각형 9984" transform="translate(15.273 9.429)" style="fill:#202225" d="M0 0h1.532v2.949H0z"/>
    <path data-name="사각형 9985" transform="translate(15.273 14.967)" style="fill:#202225" d="M0 0h1.532v2.949H0z"/>
    <path data-name="사각형 9986" transform="translate(15.273 20.512)" style="fill:#202225" d="M0 0h1.532v2.949H0z"/>
    <path data-name="사각형 9987" transform="translate(19.195 3.891)" style="fill:#202225" d="M0 0h1.532v2.949H0z"/>
    <path data-name="사각형 9988" transform="translate(19.195 9.429)" style="fill:#202225" d="M0 0h1.532v2.949H0z"/>
    <path data-name="사각형 9989" transform="translate(19.195 14.967)" style="fill:#202225" d="M0 0h1.532v2.949H0z"/>
    <path data-name="사각형 9990" transform="translate(19.195 20.512)" style="fill:#202225" d="M0 0h1.532v2.949H0z"/>
    <path data-name="사각형 9991" transform="translate(23.124 3.891)" style="fill:#202225" d="M0 0h1.532v2.949H0z"/>
    <path data-name="사각형 9992" transform="translate(23.124 9.429)" style="fill:#202225" d="M0 0h1.532v2.949H0z"/>
    <path data-name="사각형 9993" transform="translate(23.124 14.967)" style="fill:#202225" d="M0 0h1.532v2.949H0z"/>
    <path data-name="사각형 9994" transform="translate(23.124 20.512)" style="fill:#202225" d="M0 0h1.532v2.949H0z"/>
    <path data-name="사각형 9995" transform="translate(3.845 12.087)" style="fill:#202225" d="M0 0h1.532v2.949H0z"/>
    <path data-name="사각형 9996" transform="translate(3.845 17.625)" style="fill:#202225" d="M0 0h1.532v2.949H0z"/>
    <path data-name="사각형 9997" transform="translate(3.845 23.17)" style="fill:#202225" d="M0 0h1.532v2.949H0z"/>
    <path data-name="사각형 9998" transform="translate(3.845 28.708)" style="fill:#202225" d="M0 0h1.532v2.949H0z"/>
    <path data-name="사각형 9999" transform="translate(30.623 12.087)" style="fill:#202225" d="M0 0h1.532v2.949H0z"/>
    <path data-name="사각형 10000" transform="translate(30.623 17.625)" style="fill:#202225" d="M0 0h1.532v2.949H0z"/>
    <path data-name="사각형 10001" transform="translate(30.623 23.17)" style="fill:#202225" d="M0 0h1.532v2.949H0z"/>
    <path data-name="사각형 10002" transform="translate(30.623 28.708)" style="fill:#202225" d="M0 0h1.532v2.949H0z"/>
</svg>
