<svg xmlns="http://www.w3.org/2000/svg" width="27" height="27" viewBox="0 0 27 27">
    <defs>
        <clipPath id="404pg63mfa">
            <path data-name="사각형 10007" transform="translate(0 .169)" style="fill:#969899" d="M0 0h27v27H0z"/>
        </clipPath>
    </defs>
    <g data-name="그룹 28086" transform="translate(0 -.169)" style="clip-path:url(#404pg63mfa)">
        <path data-name="패스 57" d="M13.5 27.006A13.5 13.5 0 1 0 0 13.5 13.5 13.5 0 0 0 13.5 27m4.777-18.272a1.351 1.351 0 1 1 1.909 1.912l-7.633 7.633-.005.005a1.347 1.347 0 0 1-1.9.005l-.005-.005-.005-.005-3.819-3.814a1.35 1.35 0 1 1 1.876-1.943l.034.034 2.865 2.864 6.683-6.684z" transform="translate(0 .163)" style="fill-rule:evenodd;fill:#969899"/>
    </g>
</svg>
