<svg xmlns="http://www.w3.org/2000/svg" width="18.562" height="19.078" viewBox="0 0 18.562 19.078">
    <defs>
        <clipPath id="lz2iqk1h7a">
            <path data-name="사각형 17" style="fill:#636973" d="M0 0h18.562v19.078H0z"/>
        </clipPath>
    </defs>
    <g data-name="그룹 7" style="clip-path:url(#lz2iqk1h7a)">
        <path data-name="패스 3" d="M16.366 10.469a7.488 7.488 0 0 0 .067-.93 7.488 7.488 0 0 0-.067-.93l2.017-1.579a.476.476 0 0 0 .114-.61L16.59 3.114a.472.472 0 0 0-.582-.205l-2.375.959a7.238 7.238 0 0 0-1.612-.94L11.663.4a.491.491 0 0 0-.477-.4H7.371A.482.482 0 0 0 6.9.4l-.359 2.528a7.065 7.065 0 0 0-1.612.94l-2.376-.959a.477.477 0 0 0-.582.205L.064 6.42a.478.478 0 0 0 .114.61l2.013 1.579a7.488 7.488 0 0 0-.067.93 7.488 7.488 0 0 0 .067.93L.178 12.048a.476.476 0 0 0-.114.61l1.908 3.305a.472.472 0 0 0 .582.205l2.375-.959a7.238 7.238 0 0 0 1.612.94l.359 2.528a.482.482 0 0 0 .472.4h3.816a.482.482 0 0 0 .472-.4l.358-2.528a7.065 7.065 0 0 0 1.612-.94l2.37.959a.477.477 0 0 0 .582-.205l1.908-3.305a.478.478 0 0 0-.114-.61zm-7.088 2.409a3.339 3.339 0 1 1 3.339-3.339 3.336 3.336 0 0 1-3.339 3.339" style="fill:#636973"/>
    </g>
</svg>
