<svg xmlns="http://www.w3.org/2000/svg" width="36" height="36" viewBox="0 0 36 36">
    <defs>
        <clipPath id="6d4rx3y30a">
            <path data-name="사각형 10018" style="fill:#fd784c" d="M0 0h36v36H0z"/>
        </clipPath>
    </defs>
    <g data-name="그룹 28119" style="clip-path:url(#6d4rx3y30a)">
        <path data-name="패스 69" d="M2.986 13.141H.6a.6.6 0 0 1-.6-.6V.6A.6.6 0 0 1 .6 0h11.943a.6.6 0 0 1 .6.6v2.386a.6.6 0 0 1-.6.6H3.584v8.959a.6.6 0 0 1-.6.6m-1.789-1.199h1.194v-8.96a.6.6 0 0 1 .6-.6h8.959V1.195H1.195zm34.046 1.195h-2.39a.6.6 0 0 1-.6-.6V3.584h-8.956a.6.6 0 0 1-.6-.6V.6a.6.6 0 0 1 .6-.6h11.946a.6.6 0 0 1 .6.6v11.943a.6.6 0 0 1-.6.6m-1.792-1.195h1.195V1.195H23.892v1.194h8.959a.6.6 0 0 1 .6.6zm-20.906 23.89H.6a.6.6 0 0 1-.6-.6V23.295a.6.6 0 0 1 .6-.6h2.386a.6.6 0 0 1 .6.6v8.959h8.959a.6.6 0 0 1 .6.6v2.389a.6.6 0 0 1-.6.6m-11.35-1.2h10.751v-1.194h-8.96a.6.6 0 0 1-.6-.6v-8.957H1.195zm34.046 1.195H23.295a.6.6 0 0 1-.6-.6v-2.387a.6.6 0 0 1 .6-.6h8.959v-8.956a.6.6 0 0 1 .6-.6h2.389a.6.6 0 0 1 .6.6v11.946a.6.6 0 0 1-.6.6m-11.351-1.198h10.751V23.892h-1.194v8.959a.6.6 0 0 1-.6.6h-8.957z" style="fill:#fd784c"/>
        <path data-name="패스 70" d="M33.684 34.281H8.6a.6.6 0 0 1-.6-.6V8.6a.6.6 0 0 1 .6-.6h25.084a.6.6 0 0 1 .6.6v25.084a.6.6 0 0 1-.6.6M9.195 33.087h23.892V9.195H9.195z" transform="translate(-3.222 -3.222)" style="fill:#fd784c"/>
    </g>
</svg>
