<svg xmlns="http://www.w3.org/2000/svg" width="20" height="19" viewBox="0 0 20 19">
    <defs>
        <clipPath id="7gnzlml2xa">
            <path data-name="사각형 10059" style="fill:none" d="M0 0h20v19H0z"/>
        </clipPath>
    </defs>
    <g data-name="icon_styleguide" style="clip-path:url(#7gnzlml2xa)">
        <path data-name="패스 104" d="M9.75 16.833a1.083 1.083 0 1 0 1.083 1.083 1.084 1.084 0 0 0-1.083-1.083M19.5.583A1.084 1.084 0 0 0 18.417-.5H1.083A1.084 1.084 0 0 0 0 .583v17.334a1.084 1.084 0 0 0 2.167 0V1.667h16.25A1.084 1.084 0 0 0 19.5.583m-5.417 16.25a1.083 1.083 0 1 0 1.083 1.083 1.084 1.084 0 0 0-1.083-1.083m-8.667 0A1.083 1.083 0 1 0 6.5 17.917a1.084 1.084 0 0 0-1.083-1.083m13-13A1.083 1.083 0 1 0 19.5 4.917a1.084 1.084 0 0 0-1.083-1.083m0 4.333A1.083 1.083 0 1 0 19.5 9.25a1.084 1.084 0 0 0-1.083-1.083m0 4.333a1.083 1.083 0 1 0 1.083 1.083 1.084 1.084 0 0 0-1.083-1.083m0 4.333a1.083 1.083 0 1 0 1.083 1.084 1.084 1.084 0 0 0-1.083-1.083"/>
    </g>
</svg>
