<svg xmlns="http://www.w3.org/2000/svg" width="27" height="26" viewBox="0 0 27 26">
    <defs>
        <clipPath id="zg6tlvolha">
            <path data-name="사각형 10053" transform="translate(.475 .475)" style="fill:#fff" d="M0 0h6v6H0z"/>
        </clipPath>
    </defs>
    <g data-name="사각형 10050" style="stroke:#fde0d7;stroke-width:2px;fill:#fff">
        <rect width="21" height="21" rx="3" style="stroke:none"/>
        <rect x="1" y="1" width="19" height="19" rx="2" style="fill:none"/>
    </g>
    <g data-name="그룹 28163">
        <g data-name="사각형 10051" style="fill:#fde0d7;stroke:#fff">
            <path style="stroke:none" d="M0 0h16v16H0z" transform="translate(11 10)"/>
            <path style="fill:none" d="M.5.5h15v15H.5z" transform="translate(11 10)"/>
        </g>
    </g>
    <g data-name="그룹 28170" transform="translate(15.525 14.525)" style="clip-path:url(#zg6tlvolha)">
        <path data-name="패스 94" d="M0 5.33v1.4h1.4L5.536 2.6l-1.4-1.4zm6.621-3.815a.362.362 0 0 0 0-.524L5.742.112a.362.362 0 0 0-.524 0L4.526.8l1.4 1.4z" transform="translate(0 .217)" style="fill:#fff"/>
    </g>
</svg>
